<?xml version="1.0" standalone="no"?>
<!DOCTYPE svg PUBLIC "-//W3C//DTD SVG 1.1//EN" "http://www.w3.org/Graphics/SVG/1.1/DTD/svg11.dtd" >
<svg xmlns="http://www.w3.org/2000/svg">
<metadata></metadata>
<defs>
<font id="fzsuxinshiliukais-r-gbregular" horiz-adv-x="2048" vert-adv-y="2048" >
<font-face units-per-em="2048" ascent="1632" descent="-416" />
<missing-glyph horiz-adv-x="608" />
<glyph horiz-adv-x="0" vert-adv-y="0" />
<glyph horiz-adv-x="682" />
<glyph unicode=" "  horiz-adv-x="608" />
<glyph unicode="&#x09;" horiz-adv-x="608" />
<glyph unicode="&#xa0;" horiz-adv-x="608" />
<glyph unicode="!" horiz-adv-x="608" d="M296 -16q-96 0 -104 96q8 96 104 104q96 -8 112 -112q-8 -80 -112 -88zM400 1328l-40 -888v-8q-24 -80 -64 -80q-48 0 -48 96l-48 888q0 136 104 136q104 -8 96 -144z" />
<glyph unicode="&#x22;" horiz-adv-x="736" d="M224 984h-48l-80 384q8 72 104 88q104 -8 104 -88zM560 976h-48l-80 392q8 72 104 88q96 -16 104 -88z" />
<glyph unicode="#" horiz-adv-x="1224" d="M200 72l72 296h-168q-72 8 -80 80q16 64 72 72h208l88 360h-144q-64 8 -72 80q8 64 64 72h184l64 240q16 64 88 56q80 -24 72 -88l-56 -208h200l56 240q24 64 104 48q56 -16 56 -72l-48 -216h168q64 -8 72 -72q-8 -72 -64 -80h-216l-80 -360h144q56 -8 64 -64 q-8 -80 -64 -88h-176l-80 -344q-24 -40 -88 -32q-72 16 -64 64l72 312h-216l-72 -312q-24 -64 -112 -56q-72 0 -48 72zM560 880l-88 -360h208l80 360h-200z" />
<glyph unicode="$" horiz-adv-x="1224" d="M688 1328v-496q416 -152 408 -456q-16 -360 -408 -408v-160v-16q8 -56 -48 -56q-88 -8 -88 64v168q-344 8 -408 312q-8 56 56 72q56 16 72 -32q40 -224 280 -224v584q-376 120 -376 416q32 328 376 376v144q0 72 72 72q64 0 64 -72v-152q288 -24 320 -256 q8 -120 -64 -128q-72 8 -80 88q-16 128 -176 160zM552 880v440q-200 -24 -224 -200q0 -136 192 -224q24 -8 32 -16zM688 632v-536q248 32 264 280q0 152 -264 256z" />
<glyph unicode="%" horiz-adv-x="1672" d="M368 584q-312 8 -320 440q24 424 328 440q304 -8 320 -440q-16 -432 -328 -440zM368 656q168 8 176 376q-8 328 -168 352q-160 -32 -176 -360q0 -368 168 -368zM1320 1368l-816 -1320q-40 -48 -112 -56q-96 8 -72 72l824 1328q24 48 120 40q56 -8 64 -16q8 -16 -8 -48z M1280 0q-312 8 -320 432q16 432 328 440q296 -8 312 -440q-16 -424 -320 -432zM1280 72q176 8 176 376q-16 336 -168 344q-160 -32 -176 -360q0 -360 168 -360z" />
<glyph unicode="&#x26;" horiz-adv-x="1632" d="M1264 -24q-184 -24 -280 160q-200 -152 -544 -152q-400 40 -392 392q-8 312 344 472q-160 120 -152 296q8 312 392 320q336 -16 344 -280q0 -208 -264 -368q192 -120 320 -360q80 152 128 344q24 96 128 72q72 -64 40 -168q-64 -240 -208 -424q8 -8 16 -32l24 -48 q80 -112 136 -16q32 48 64 40q40 -16 48 -80q0 -168 -144 -168zM544 144q200 8 360 160q-160 336 -368 424q-296 -128 -304 -344q32 -248 312 -240zM448 1168q-24 -152 112 -240q168 80 200 216q8 152 -144 168q-160 -8 -168 -144z" />
<glyph unicode="'" horiz-adv-x="320" d="M192 984h-40l-64 384q0 72 88 88q88 -16 88 -88z" />
<glyph unicode="(" horiz-adv-x="488" d="M408 -304q-48 0 -104 96q-216 352 -224 784q8 456 248 856q32 48 80 40q80 0 48 -104q-168 -400 -168 -792q0 -424 168 -776q40 -96 -48 -104z" />
<glyph unicode=")" horiz-adv-x="488" d="M80 1472q48 16 112 -96q224 -424 224 -800q-8 -464 -256 -840q-24 -48 -80 -40q-64 8 -40 104q168 352 168 776q0 392 -168 792q-40 96 40 104z" />
<glyph unicode="*" horiz-adv-x="736" d="M664 1008q40 -24 0 -80q-40 -32 -72 -16q-16 16 -48 32q-40 24 -96 72v-136q-8 -32 -24 -40q-104 -8 -120 40q16 56 0 120q-72 -32 -144 -96q-40 -32 -88 24q-24 40 24 72q8 8 24 16q56 56 128 120q-32 32 -144 112q-40 24 0 80q40 40 80 16q32 -32 96 -64q24 -16 40 -24 q0 128 -8 176q-16 24 8 32q72 0 112 -24q32 -24 16 -64v-48q-8 -56 0 -80q8 8 40 24q48 40 80 64q72 48 104 16q32 -48 -8 -96q-80 -56 -152 -128q72 -56 152 -120z" />
<glyph unicode="+" horiz-adv-x="1344" d="M144 768h456v432h152v-432h464v-144h-464v-448h-152v448h-456v144z" />
<glyph unicode="," horiz-adv-x="608" d="M256 -80q-96 24 -72 144q24 104 112 112q136 -8 144 -176q-8 -184 -160 -304q-48 -32 -88 -8q-16 24 8 64q64 64 88 136q0 48 -32 32z" />
<glyph unicode="-" horiz-adv-x="1344" d="M144 624v144h1072v-144h-1072z" />
<glyph unicode="." horiz-adv-x="608" d="M304 -24q-128 8 -128 104q8 104 128 112q112 -8 120 -120q-8 -88 -120 -96z" />
<glyph unicode="/" horiz-adv-x="1064" d="M24 -136l896 1552q56 88 112 72q56 -64 40 -120l-872 -1512q-32 -64 -128 -64q-72 8 -48 72z" />
<glyph unicode="0" horiz-adv-x="1224" d="M936 728q-24 504 -296 536q-256 -40 -312 -536q0 -528 304 -584q296 16 304 584zM640 1440q448 -24 488 -712q8 -736 -504 -744q-488 16 -496 736q72 672 512 720z" />
<glyph unicode="1" horiz-adv-x="1224" d="M736 328q16 -360 -24 -328q-192 0 -208 96q56 520 40 1032q0 40 -40 40q-16 0 -80 -8q40 8 -32 -8q-56 0 -64 56q8 48 72 72q120 48 200 160q128 56 176 -72q-64 -344 -40 -1040z" />
<glyph unicode="2" horiz-adv-x="1224" d="M1064 216q72 -72 32 -176q-8 -24 -96 0q-248 8 -680 -16q-48 -16 -88 -16q-24 0 -80 64q-40 56 8 96q432 368 648 776q96 192 -8 288q-208 152 -480 -96q-80 -56 -160 8q-56 48 72 168q160 168 512 144q448 -120 248 -576q-256 -408 -536 -656q248 -16 448 8 q144 16 160 -16z" />
<glyph unicode="3" horiz-adv-x="1224" d="M816 808q280 -72 312 -336q-8 -472 -488 -480q-264 8 -384 144q-40 72 -24 112q24 32 80 -8q152 -88 320 -88q312 24 304 304q-32 208 -296 232q-64 0 -184 -24q-64 -16 -96 56q-8 104 40 112q144 24 232 48q232 72 224 248q-16 152 -200 160q-208 -8 -272 -152 q-88 -40 -136 104q8 56 32 88q216 160 496 112q264 -64 288 -280q0 -272 -248 -352z" />
<glyph unicode="4" horiz-adv-x="1224" d="M744 504q0 104 8 328q0 224 8 328q-32 -56 -112 -184q-208 -336 -336 -496q144 16 320 16q72 8 112 8zM1016 520q144 -48 152 -184q-8 -16 -80 -8h-8q-72 16 -152 8q-8 -72 0 -192q8 -144 -16 -144q-160 24 -192 152q24 80 24 176q-128 8 -360 -8h-48h-32 q-152 -24 -184 32q-72 80 8 152q384 528 584 912q8 48 64 40q160 -40 200 -88q8 -16 -16 -40q-8 -16 -8 -80q-8 -40 -8 -72q-24 -248 -24 -664q64 8 96 8z" />
<glyph unicode="5" horiz-adv-x="1224" d="M776 848q352 -56 352 -368q-16 -496 -608 -504q-248 0 -376 136q-56 120 0 136q56 -8 168 -72q224 -96 432 -24q192 88 200 288q16 232 -240 256q-152 16 -368 -56q-128 -16 -136 136q96 192 80 520q-16 96 -48 128q-8 24 0 32q0 8 32 8q144 -16 224 -120q0 -8 -24 -32 q224 0 368 24q80 8 120 8q176 -32 176 -144q-72 -40 -560 -40q-8 0 -24 8q-72 8 -88 32q-8 -112 -24 -272q-8 -64 -16 -104q216 56 360 24z" />
<glyph unicode="6" horiz-adv-x="1224" d="M672 1288q-320 -80 -376 -616q288 312 680 152q168 -104 152 -360q-40 -448 -504 -480q-448 -32 -488 392q-48 1000 536 1088q176 8 280 -80q88 -80 48 -136q-24 -32 -96 -8q-8 0 -24 8q-104 64 -208 40zM824 688q-352 104 -520 -248q24 -328 304 -328q320 16 344 360 q-8 152 -128 216z" />
<glyph unicode="7" horiz-adv-x="1224" d="M1072 1304q24 -56 16 -72q0 -8 -16 -24q-16 -24 -24 -32q-176 -216 -296 -688q-56 -200 -56 -408q0 -128 -48 -128q-152 24 -160 128q8 152 88 416q104 360 264 736q-160 32 -480 -24q-40 -8 -72 0q-48 24 -112 96q-56 80 -8 80q248 -16 584 32q160 24 216 -16 q40 -32 104 -96z" />
<glyph unicode="8" horiz-adv-x="1224" d="M952 376q-16 288 -304 312q-304 -16 -336 -312q24 -256 328 -264q280 16 312 264zM384 1104q0 -224 256 -240q240 8 248 240q-16 184 -256 200q-216 -16 -248 -200zM856 784q264 -112 272 -408q-16 -384 -488 -392q-496 8 -504 392q16 280 280 392q-216 104 -200 336 q48 328 416 344q384 -24 424 -344q-8 -240 -200 -320z" />
<glyph unicode="9" horiz-adv-x="1224" d="M296 984q8 -288 320 -296q272 24 320 264q16 328 -312 368q-296 -40 -328 -336zM624 536q-488 8 -504 456q56 432 504 464q480 -16 504 -472q32 -960 -552 -992q-296 -8 -384 184q-16 64 8 88t64 -8q112 -120 296 -96q344 56 384 504q-144 -120 -320 -128z" />
<glyph unicode=":" horiz-adv-x="608" d="M304 -16q-96 0 -104 96q8 96 104 104q104 -8 112 -112q-8 -80 -112 -88zM304 544q-96 8 -104 112q8 96 104 104q104 -8 112 -112q-8 -88 -112 -104z" />
<glyph unicode=";" horiz-adv-x="608" d="M296 512q-112 8 -120 128q8 112 128 120q120 -8 128 -128q-16 -104 -136 -120zM256 -64q-96 16 -72 136q16 104 112 104q136 -8 144 -176q-8 -184 -160 -304q-80 -16 -72 24q0 8 8 16q72 88 80 168q0 40 -40 32z" />
<glyph unicode="&#x3c;" horiz-adv-x="1344" d="M1248 280v-144l-1136 504v112l1136 504v-152l-952 -408z" />
<glyph unicode="=" horiz-adv-x="1344" d="M144 912h1072v-136h-1072v136zM144 616h1072v-136h-1072v136z" />
<glyph unicode="&#x3e;" horiz-adv-x="1344" d="M112 288l960 416l-960 416v144l1136 -504v-112l-1136 -504v144z" />
<glyph unicode="?" horiz-adv-x="936" d="M384 -16q-96 8 -104 104q8 104 104 112q104 -8 112 -120q-8 -88 -112 -96zM312 536q104 152 248 296q192 176 112 376q-104 152 -304 80q-80 -48 -80 -136q0 -104 -128 -96q-80 16 -80 120q32 272 392 296q392 -16 408 -368q8 -224 -200 -392q-144 -112 -208 -224 q-32 -56 -120 -32q-72 24 -40 80z" />
<glyph unicode="@" horiz-adv-x="1672" d="M1288 1112l-208 -544q-40 -80 -40 -136q0 -32 64 -32q280 64 320 440q-32 440 -536 488q-592 -40 -616 -640q16 -592 592 -616q384 16 568 312h96q-208 -432 -680 -408q-728 24 -728 720q40 712 760 760q640 -48 672 -616q-48 -528 -504 -568q-152 0 -136 152 q-128 -144 -280 -144q-216 8 -232 256q64 560 496 608q144 0 200 -120l40 88h152zM688 392q128 0 248 208q8 24 16 32q72 136 64 248q8 112 -112 112q-296 -32 -336 -464q8 -128 120 -136z" />
<glyph unicode="A" horiz-adv-x="1472" d="M920 776q-48 136 -168 368q-104 -184 -216 -424q112 24 232 32q64 8 112 16q24 8 40 8zM1416 160q64 -144 40 -160q-208 -24 -248 72q-40 136 -144 376q-24 64 -40 96q-152 8 -296 -40q-72 -16 -8 16q48 32 112 56q16 16 0 16q-288 8 -392 -80q-160 -256 -280 -496 q-32 -32 -88 -16q-72 136 -40 224q48 80 200 320q-72 88 -64 176q40 -48 80 -32q16 8 40 8q16 8 32 8q72 120 224 424q24 40 56 104q80 128 56 160q-24 64 8 80q56 0 112 -48q16 -24 40 -56q8 -24 16 -32q232 -384 584 -1176z" />
<glyph unicode="B" horiz-adv-x="1392" d="M912 184q280 144 192 376q-152 208 -688 80q0 -40 -8 -120q0 -168 -16 -248q288 -176 520 -88zM856 1312q-264 8 -424 -88q0 -112 -16 -320v-72q192 -16 368 32q264 88 256 280q0 144 -184 168zM1328 528q-40 -424 -408 -528q-344 -8 -528 104q-32 -104 -112 -104 q-40 -8 -80 128q-8 56 -64 120q-24 24 32 80t72 336q16 272 -24 496q-64 -40 -104 80q-32 160 56 136q48 -8 256 48q328 88 592 16q224 -64 216 -272q-24 -232 -248 -360q328 -40 344 -280z" />
<glyph unicode="C" horiz-adv-x="1472" d="M1112 1128q-56 -48 -104 24q-128 136 -320 72q-216 -88 -312 -304q-128 -312 -24 -576q104 -200 408 -184q320 24 616 240q16 8 24 0q8 0 0 -24q-184 -368 -688 -376q-480 -16 -592 344q-88 304 80 656q208 408 576 464q224 -16 352 -200q40 -96 -16 -136z" />
<glyph unicode="D" horiz-adv-x="1512" d="M880 192q392 176 368 688q-16 232 -192 328q-328 144 -656 -8q24 -440 -8 -1032q320 -64 488 24zM208 1136q-80 -48 -96 -32q-40 48 -8 152q56 152 120 136q64 0 192 24q504 104 768 -56q256 -152 256 -488q8 -680 -496 -848q-344 -88 -760 56q-64 24 -64 80q16 72 72 56 q8 0 24 -8h8q-8 104 0 392q8 280 -16 536z" />
<glyph unicode="E" horiz-adv-x="1224" d="M1192 72q8 -56 -48 -72q-72 0 -128 16q-48 40 -232 56q-360 0 -504 -48q-48 -24 -104 -24q-104 0 -88 136q16 272 24 648q0 376 -8 536q0 40 -16 80q8 -8 0 8q-16 32 8 48q24 8 56 -16q40 -16 72 -64q240 32 536 32q32 0 96 8q72 0 96 8q128 16 200 -120q16 -80 -32 -120 q-80 0 -120 8q-144 24 -280 -24q-40 -8 -48 -8q-8 8 16 16q64 32 120 56q24 16 0 16q-320 8 -472 -64q-40 -104 -56 -568q-8 -96 -8 -120q168 72 232 120q-248 56 -176 192q24 32 64 56q-32 -56 -16 -72q40 -24 160 8h16q192 40 336 32q112 -16 160 -80q40 -48 -40 -96 q-312 -16 -736 -176q0 -192 24 -296q368 40 568 48q48 0 64 8q64 16 120 0q88 -56 144 -168z" />
<glyph unicode="F" horiz-adv-x="1144" d="M1128 1288q24 -88 -32 -112q-112 0 -168 16q-120 0 -232 -40q-32 -8 -32 0q0 16 24 24q104 48 112 64q-248 24 -480 -80v-24q-16 -184 -16 -352q200 32 432 32q40 0 72 24q48 40 120 -8q80 -40 136 -168q8 -56 -64 -64q-144 72 -336 64q-160 -8 -336 -24q8 0 -24 0v-200 q-8 -184 16 -392q-8 -48 -80 -64q-8 0 -16 8q-152 16 -136 144q88 1008 0 1256q-24 32 8 48t56 -16q64 -24 88 -56q344 16 680 48q128 8 208 -128z" />
<glyph unicode="G" horiz-adv-x="1552" d="M1496 736q16 -88 -64 -80q-96 32 -168 24q56 -272 -16 -440q-112 -248 -544 -248q-656 72 -600 840q80 432 504 600q344 80 560 -144l16 -16q24 -32 16 -56q-16 -80 -72 -64q-208 136 -456 80q-304 -96 -368 -424q-56 -576 416 -672q432 0 424 536q-216 0 -304 -48 q-64 -40 -144 24q-88 72 -104 152q0 32 16 24q24 -24 112 -24q168 0 472 32q80 8 120 8q136 16 184 -104z" />
<glyph unicode="H" horiz-adv-x="1632" d="M1416 1168q-16 -216 -8 -552q0 -328 16 -560q8 -64 -40 -56q-184 0 -184 152q0 40 8 128q16 248 16 344q-376 72 -888 0v-112q-8 -296 16 -448q0 -64 -72 -64q-184 16 -160 152q24 240 32 552v176q8 464 -40 528q-8 40 8 56q16 8 56 -16q208 -112 200 -192q0 -8 -8 -16 q-16 -40 -16 -80q-8 -64 -8 -368q288 24 560 24q72 -8 176 24q72 16 120 -8q16 -8 24 -8q16 512 -48 584q-8 40 16 56q40 8 80 -16q184 -88 168 -192q-24 -48 -24 -88z" />
<glyph unicode="I" horiz-adv-x="528" d="M296 1448q112 -24 88 -96q-16 -16 -16 -144q-40 -616 0 -1152q8 -56 -40 -64q-192 16 -176 152q40 704 0 1120q-8 24 -16 8t-24 -16q-8 0 -8 24q64 208 192 168z" />
<glyph unicode="J" horiz-adv-x="976" d="M912 1376q16 -80 -48 -96q-40 24 -112 24q56 -496 8 -920q-24 -232 -136 -344q-64 -48 -168 -40q-312 40 -448 320q-8 64 16 40q200 -200 392 -176q136 32 152 184q72 504 0 928q-160 -24 -288 -56q-128 -56 -184 -16q-48 40 -64 152q0 24 16 16q32 -16 160 8 q248 48 464 40q8 0 24 8q24 0 32 8q144 -8 184 -80z" />
<glyph unicode="K" horiz-adv-x="1432" d="M368 336q16 -352 -96 -336q-64 -8 -104 96q0 168 16 320q32 280 40 904q-8 64 -80 48q-40 0 -48 24t16 48q56 24 160 24q168 -32 176 -144q8 -56 -16 -168q-64 -352 -64 -816zM1296 160q-32 0 -80 -8q-56 -8 -88 -16q-120 -24 -216 -24q-32 8 -32 16q-8 0 16 8 q168 56 184 112q-240 184 -488 248q-152 32 -176 64q-56 128 -16 216q368 272 552 456q56 40 128 24q32 -40 88 -56q48 -32 48 -64q0 -24 -48 -56q-208 -72 -616 -376q472 -184 728 -376q88 -72 88 -120q8 -40 -72 -48z" />
<glyph unicode="L" horiz-adv-x="1224" d="M1144 272q72 -48 64 -144q-24 -72 -136 -48q-88 48 -208 48q-352 -8 -560 -64q0 -88 -104 -56q-144 128 -104 248v56q8 64 8 112q-16 512 80 1008q24 48 48 24q72 -64 120 -136t32 -120q-144 -496 -104 -952q160 -8 728 48q56 16 136 -24z" />
<glyph unicode="M" horiz-adv-x="1760" d="M1640 0q-168 0 -176 144q0 40 -8 112q-40 576 -72 824q-112 -224 -272 -688q-72 -184 -192 -208q-112 -8 -160 96q-184 480 -360 808q-72 -568 -88 -1032q0 -56 -80 -56q-160 32 -136 176q0 16 16 96q32 192 48 280q64 600 40 768q-32 -8 -56 -32q-16 -16 -24 -8 q-8 0 -8 24q16 88 128 144q160 16 248 -88q216 -512 424 -912q192 424 376 952q56 40 176 56q88 0 96 -104q24 -608 104 -1216q24 -144 -24 -136z" />
<glyph unicode="N" horiz-adv-x="1512" d="M1208 1344q16 56 136 112q64 32 64 -32q-8 -120 -48 -560q-32 -256 -40 -376q-16 -168 -16 -416q16 -72 -48 -72q-160 16 -160 104q0 48 8 72q-488 656 -720 936q-88 -576 -88 -1056q-8 -56 -72 -56q-168 8 -144 176q120 728 96 1176q-48 -16 -48 -48q-16 -16 -24 -16 t-8 16q8 80 128 152q24 24 96 -8q96 -48 128 -88q376 -544 680 -912q88 584 80 896z" />
<glyph unicode="O" horiz-adv-x="1632" d="M816 1312q-456 -64 -512 -600q16 -560 528 -592q472 40 512 592q-32 560 -528 600zM832 -32q-712 24 -728 744q80 704 720 776q680 -72 720 -776q-32 -712 -712 -744z" />
<glyph unicode="P" horiz-adv-x="1264" d="M1008 856q80 248 -24 368q-224 160 -608 -24q-40 -176 -40 -440q224 -152 400 -128q192 32 272 224zM1160 1328q160 -176 16 -552q-120 -264 -400 -296q-280 -8 -440 184q0 -96 16 -336q16 -168 0 -320q-32 -24 -88 -8q-48 0 -104 72q24 640 0 1080q-88 32 -64 88 q168 176 512 216q360 16 552 -128z" />
<glyph unicode="Q" horiz-adv-x="1632" d="M1104 224q264 160 248 528q-56 512 -528 544q-488 -32 -544 -544q0 -552 528 -592q72 0 120 16q-56 192 -304 304q-96 56 -8 176q40 40 96 16q192 -136 304 -320l8 -16q48 -80 80 -112zM1216 80q24 -24 80 -64q168 -144 264 -208q40 -88 -72 -88q-8 0 -24 8 q-232 56 -304 112q-96 64 -168 176q-72 -16 -184 -16q-704 24 -728 752q80 672 744 720q656 -56 728 -720q8 -464 -336 -672z" />
<glyph unicode="R" horiz-adv-x="1392" d="M1296 248q56 -40 64 -168q-8 -80 -112 -72q-360 328 -848 584q-112 112 -40 168q560 -136 704 224q32 288 -304 312q-256 16 -392 -80q-48 -144 -56 -472q-8 -376 24 -712q-32 -40 -120 -24l-8 8q-72 48 -72 80q16 768 -8 1112q-88 -8 -64 48q224 232 728 200 q560 -80 448 -536q-96 -272 -528 -336q336 -160 584 -336z" />
<glyph unicode="S" horiz-adv-x="1224" d="M552 0q-408 32 -504 416q0 48 8 56q16 16 48 -8q144 -280 456 -320q416 8 416 288q-8 144 -360 232q-40 8 -112 32q-64 24 -104 32q-360 112 -312 360q96 376 624 368q248 -16 344 -168q40 -96 -8 -136q-24 -16 -80 16q-104 104 -248 104q-376 32 -440 -184 q-32 -152 232 -224q40 -8 104 -24q72 -24 104 -32q472 -136 456 -384q-16 -424 -624 -424z" />
<glyph unicode="T" horiz-adv-x="1304" d="M880 1288q16 8 -8 16h-136q-56 -520 0 -1240q8 -64 -40 -64q-200 8 -200 152q16 160 24 552q8 384 0 576q-120 -16 -256 -40q-128 -40 -192 8q-64 80 -72 176q0 24 16 8q32 -32 80 -16q344 24 656 40q128 0 272 32q168 0 248 -120q24 -112 -40 -128q-96 0 -200 16 q-112 0 -264 -32q-8 8 8 16q40 24 104 48z" />
<glyph unicode="U" horiz-adv-x="1552" d="M1408 1272q16 -184 24 -448q8 -256 0 -384q-24 -464 -656 -448q-696 -16 -656 752q24 216 24 400q8 232 56 288q80 40 136 -128q24 -96 24 -176q-200 -984 416 -976q448 -32 464 392q40 560 -96 888q128 56 224 -8q24 -16 32 -112q8 -24 8 -40z" />
<glyph unicode="V" horiz-adv-x="1432" d="M1384 1376q24 -40 -16 -128q-312 -704 -584 -1192q-48 -64 -96 -64q-64 8 -96 80q-264 632 -544 1152q-64 192 120 232q8 -16 32 -72q32 -56 48 -88q256 -520 456 -1000q272 488 440 992q8 24 24 64q16 48 24 64q56 72 192 -40z" />
<glyph unicode="W" horiz-adv-x="1920" d="M1864 1448q48 -8 -8 -144q-160 -432 -328 -1200q-8 -104 -88 -104q-72 0 -120 56q-80 96 -176 488q-96 368 -168 536q-200 -480 -352 -1016q-32 -64 -120 -64q-96 16 -112 120q-80 384 -344 1112q-56 176 64 224q88 24 128 -128q16 -48 56 -192q160 -568 232 -776 q88 200 256 728q48 144 64 200q104 136 248 0q168 -480 304 -944q8 32 32 112q160 584 224 872q24 144 208 120z" />
<glyph unicode="X" horiz-adv-x="1432" d="M192 24q-80 -56 -120 24q-24 96 24 144q16 8 40 32q336 304 504 488q-336 408 -536 584q-48 40 -48 64q8 24 56 48q136 72 216 -32q56 -72 176 -224q168 -200 248 -304q296 344 416 592q24 56 72 16l8 -8q128 -136 72 -224q-112 -152 -448 -520q128 -152 360 -424 q104 -120 152 -176q48 -48 32 -72q-8 -24 -80 -32q-152 0 -176 40q-176 248 -408 536q-192 -200 -520 -512q-24 -32 -40 -40z" />
<glyph unicode="Y" horiz-adv-x="1432" d="M1272 1464q112 -96 144 -216q8 -32 -32 -56q-24 -8 -32 -16q-160 -144 -472 -528q-16 -16 -16 -144q-8 -40 0 -320v-120q-16 -80 -120 -48q-88 88 -96 104q40 184 32 304q8 208 -40 240q-352 472 -592 648q-32 16 -32 32q0 8 32 32q72 48 168 48q56 16 96 -64 q160 -216 456 -552q216 216 368 432q72 96 80 192q0 32 48 32h8z" />
<glyph unicode="Z" horiz-adv-x="1184" d="M944 224q200 -96 136 -216q-8 -8 -104 0q-448 40 -816 -8q-48 8 -88 64q-24 40 24 96q280 384 720 1088q-320 16 -528 -24q-80 -24 -104 -8q-48 48 -88 152q-32 56 0 56q320 -40 776 24q104 16 144 -24q40 -32 64 -104q16 -32 -32 -80q-304 -400 -712 -1064q184 0 520 32 q64 0 88 16z" />
<glyph unicode="[" horiz-adv-x="488" d="M128 -200v1592q-24 96 88 80h128q96 0 96 -40t-48 -56q-112 -24 -96 -184v-1200q-16 -160 88 -184q56 -8 56 -48q8 -56 -96 -48h-128q-112 -16 -88 88z" />
<glyph unicode="\" horiz-adv-x="1224" d="M784 0l-616 1472h160l616 -1472h-160z" />
<glyph unicode="]" horiz-adv-x="488" d="M272 -288h-128q-104 -8 -96 48q-8 40 56 48q96 40 88 184v1200q8 160 -96 184q-56 16 -48 56q-8 40 96 40h128h24q80 24 64 -80v-1592q16 -104 -88 -88z" />
<glyph unicode="^" horiz-adv-x="856" d="M432 1152l-184 -112q-48 -40 -88 8q-8 24 24 72l176 160q64 80 144 8l184 -160q48 -48 24 -80q-32 -48 -88 -24z" />
<glyph unicode="_" horiz-adv-x="1024" d="M0 -136h1024v-112h-1024v112z" />
<glyph unicode="`" horiz-adv-x="648" d="M384 1288l104 -184q16 -32 16 -48q-16 -72 -120 0l-200 208q-32 32 -32 56q0 32 32 24q88 0 136 -8t64 -48z" />
<glyph unicode="a" horiz-adv-x="1024" d="M720 240q32 320 0 424q-160 152 -352 32q-184 -168 -104 -416q56 -152 224 -152q152 -16 232 112zM960 64q-56 -64 -136 -64t-96 80q-88 -88 -256 -80q-312 -8 -376 208q-96 336 112 576q232 232 512 40v64q-8 24 0 32q16 16 40 8q80 -8 144 -64q32 -24 16 -48 q-40 -192 -40 -528q-8 -184 72 -160q24 16 32 -8q0 -16 -24 -56z" />
<glyph unicode="b" horiz-adv-x="1064" d="M808 376q64 248 -120 336q-184 56 -368 -40q0 -120 -16 -336q-8 -80 -8 -120q56 -64 200 -80q240 8 312 240zM976 352q-112 -344 -448 -352q-168 8 -248 56q0 -64 -56 -56q-48 0 -80 120q0 8 -8 16q-32 72 -64 96q-72 80 -16 80q72 16 80 160q32 216 24 504 q-8 256 -40 376q-8 40 -40 40q-48 24 8 64q96 24 208 -32q8 0 16 -8q32 -16 24 -32q-16 -40 -16 -88q0 -408 -8 -480q256 128 456 56q312 -120 208 -520z" />
<glyph unicode="c" horiz-adv-x="936" d="M840 280q48 24 48 -40q-96 -256 -480 -248q-176 8 -264 120q-128 200 -48 464q96 280 312 336q336 40 400 -168q-40 -80 -104 -56q-96 56 -168 48q-288 -40 -304 -376q16 -208 232 -224q208 -24 376 144z" />
<glyph unicode="d" horiz-adv-x="1064" d="M760 176q0 320 -8 488q-48 64 -168 72q-168 8 -256 -88q-224 -272 -8 -472q152 -96 440 0zM992 1392q-40 -8 -40 -40q-40 -184 -48 -560q0 -408 40 -584q72 -56 8 -120q-88 -88 -136 -88q-56 -8 -48 56q-336 -120 -544 -24q-192 112 -184 400q24 304 272 440 q224 88 440 -56q0 256 -16 552q0 48 48 64q104 32 208 24q48 -24 0 -64z" />
<glyph unicode="e" horiz-adv-x="1024" d="M872 448q-216 -112 -624 -80q56 -216 280 -224q208 0 320 128q40 32 56 16q8 -16 -8 -64q-72 -240 -408 -224q-456 48 -392 544q72 344 384 392q288 24 432 -224q88 -192 -40 -264zM400 720q-136 -80 -152 -232q240 0 456 80q104 64 -8 152q-144 96 -296 0z" />
<glyph unicode="f" horiz-adv-x="608" d="M584 1264q-200 8 -200 -392q32 0 72 8q24 8 32 8q72 16 120 -112q8 -72 -40 -72q-80 32 -184 16q16 -352 8 -504q0 -440 -224 -608q-56 -24 -80 16q-72 160 0 304q8 16 16 8l8 -16v-56q8 -24 32 8q136 200 64 832q-80 -24 -96 0l-56 56q-32 40 -24 64q16 24 80 32 q24 0 64 8h48q0 448 120 544q112 80 200 40q64 -24 56 -104v-48t-16 -32z" />
<glyph unicode="g" horiz-adv-x="1064" d="M800 264v408q-104 128 -296 80q-200 -64 -240 -288q-24 -200 136 -280q224 -80 400 80zM1000 840q24 -24 -16 -56q-24 -8 -24 -136q16 -424 -16 -752t-440 -288q-208 40 -352 160q-48 48 -40 72q8 32 56 16q208 -112 416 -104q184 24 200 184q8 128 8 176 q-128 -112 -344 -112q-376 40 -352 472q56 344 368 440q208 32 344 -80q0 40 -16 56q-8 40 48 24q96 -16 160 -72z" />
<glyph unicode="h" horiz-adv-x="1144" d="M1016 152q80 -8 88 -40q0 -40 -88 -96q-224 -72 -240 144q0 96 16 344q8 48 8 72q24 144 -96 160q-184 32 -368 -96q0 -376 -16 -552q0 -80 -56 -88q-64 8 -112 72q-24 32 -16 112q8 16 8 32q24 176 32 608q0 408 -24 520q-8 48 -32 56t-24 40q0 24 32 24 q128 -16 200 -64q48 -40 24 -88q-16 -8 -16 -64v-128q8 -200 0 -336q336 192 544 96q128 -56 80 -288q-64 -440 56 -440z" />
<glyph unicode="i" horiz-adv-x="488" d="M328 1152q-184 8 -224 152q-8 72 40 72q24 0 56 -8q32 0 48 -8q152 -8 152 -152q-24 -48 -72 -56zM408 320q32 -24 32 -104q-16 -240 -192 -216q-128 32 -128 192q-8 184 32 512q8 40 -40 64q-24 8 -24 24q0 8 16 24q56 40 80 72q24 48 80 16q56 -24 104 -72 q24 -24 0 -56q-56 -72 -80 -256q-16 -216 16 -344q56 32 80 136q8 16 24 8z" />
<glyph unicode="j" horiz-adv-x="448" d="M336 1152q-176 24 -216 152q-8 56 32 56q48 -8 104 -8q144 0 128 -144q0 -48 -48 -56zM368 848q16 -112 16 -352q8 -224 -16 -416q-24 -344 -104 -432q-40 -48 -128 -8q-112 88 -152 248q-8 32 8 40q8 8 24 -16q56 -56 104 -56q40 8 56 120q40 184 48 424q0 216 -32 320 q8 24 -64 16q-24 0 -32 16q0 16 24 40q56 56 96 80q112 80 152 -24z" />
<glyph unicode="k" horiz-adv-x="1024" d="M280 504q176 -32 336 48q96 56 80 136q-24 88 -184 80q-152 -24 -224 -112q-8 -40 -8 -152zM936 184q48 -48 48 -144q-8 -48 -88 -40q-280 232 -624 376q0 -168 8 -344q-32 -48 -104 -24q-48 32 -72 96q24 520 32 792q8 304 0 480q0 56 16 64q8 16 56 0q160 -40 136 -160 q-48 -168 -56 -480q96 104 288 120q280 0 336 -184q32 -256 -360 -344q256 -96 384 -208z" />
<glyph unicode="l" horiz-adv-x="448" d="M376 296q32 -24 32 -96q-16 -224 -184 -200q-104 16 -120 56q-32 168 -16 480v80q32 576 16 648q-8 32 -24 16q-8 -16 -16 -24q-8 0 -8 16q-8 88 88 168q40 32 80 0q112 -24 88 -88q-32 -216 -56 -592q-16 -344 0 -536q8 -32 16 -40t24 8q48 48 56 96q16 16 24 8z" />
<glyph unicode="m" horiz-adv-x="1720" d="M1648 64q32 -24 -8 -48q-88 -24 -208 -8q-72 24 -56 208q16 200 -8 344q-32 136 -136 80q-200 -168 -336 -584q-32 -64 -72 -32q-48 56 -80 144q-32 96 0 96q32 24 32 56q0 208 -24 304q-16 104 -136 40q-136 -80 -208 -192q-120 -208 -152 -432q-16 -48 -64 -24 q-64 72 -88 136q-8 88 16 152q80 224 -8 480q-48 72 -24 88q40 40 152 24q88 -24 72 -248q96 96 240 168q160 96 256 56q120 -40 120 -312q176 256 272 296q200 104 296 -64q56 -136 48 -616q8 -88 104 -112z" />
<glyph unicode="n" horiz-adv-x="1144" d="M1016 632q0 -24 -8 -88q-8 -128 0 -192v-24q32 -240 8 -296t-88 -32q-88 72 -104 104q-32 40 0 96q24 56 16 224q0 152 -24 224q-48 136 -192 80q-208 -96 -272 -304q-72 -208 -80 -392q-16 -40 -96 -24q-64 72 -88 144q-8 72 24 152q80 200 -16 480q-32 64 -24 88 q64 72 152 48q88 -16 72 -216q288 248 568 192q168 -32 152 -264z" />
<glyph unicode="o" horiz-adv-x="1144" d="M592 808q-264 -32 -296 -352q-8 -344 288 -352q280 8 296 352q-32 328 -288 352zM1064 432q-8 -440 -480 -448q-472 8 -480 464q40 456 480 496q456 -24 480 -512z" />
<glyph unicode="p" horiz-adv-x="1184" d="M904 616q-80 280 -504 128q-32 -80 -16 -536q128 -72 248 -56q296 64 272 464zM1096 592q-24 -504 -432 -576q-176 -16 -280 88q0 -304 8 -472q-24 -48 -88 -16q-8 16 -64 56q-16 8 -24 16v160q16 416 0 848q-56 -24 -112 -8q-48 24 -24 64q64 80 232 152 q720 152 784 -312z" />
<glyph unicode="q" horiz-adv-x="1064" d="M760 224q16 184 16 504q-216 104 -392 -24q-136 -96 -112 -320q40 -264 336 -224q64 16 120 48q24 8 32 16zM968 824q32 -40 8 -80t-40 -128q-40 -592 0 -896q0 -32 24 -56q24 -40 -8 -56q-240 -16 -208 168q8 56 8 328q-176 -104 -424 -80q-136 32 -208 200 q-112 432 208 648q216 104 440 -16q-8 80 64 72q64 -40 136 -104z" />
<glyph unicode="r" horiz-adv-x="736" d="M720 736q-48 -120 -136 -88q-64 48 -136 0q-144 -96 -144 -408q0 -136 -24 -208q-16 -32 -88 -24q-64 40 -80 136q-8 64 16 160q48 208 -32 480q-32 80 -24 88q40 64 152 32q88 -24 64 -208q128 216 328 176q112 -16 104 -136z" />
<glyph unicode="s" horiz-adv-x="816" d="M736 384q64 -112 0 -232q-104 -152 -352 -152q-272 0 -320 224q0 72 48 48q120 -136 264 -136q176 -8 232 112q16 56 -40 96q-40 24 -160 48q-24 8 -40 8q-344 64 -312 280q80 264 592 232q48 8 72 -56q16 -64 0 -96q-24 -32 -64 -16q-264 72 -424 -48q-64 -128 176 -160 q280 -40 328 -152z" />
<glyph unicode="t" horiz-adv-x="608" d="M576 800q8 -72 -40 -56q-40 24 -176 0h-32q-24 -280 -8 -520q0 -40 16 -56q16 -8 48 16q56 32 104 128q56 32 64 -96q-56 -232 -272 -216q-136 40 -128 168q0 232 16 528q0 -16 0 40q-136 -8 -160 152q72 -16 168 8q16 312 -16 400l-8 -8q-8 0 -24 -32q0 -8 -8 -8 q-16 0 -16 8q0 96 96 176q48 16 88 0q112 -48 88 -96q0 -80 -32 -392q8 24 0 -40q48 0 112 16q96 8 120 -120z" />
<glyph unicode="u" horiz-adv-x="1064" d="M1024 112q56 -8 -8 -72q-40 -40 -128 -48q-168 8 -168 152q-248 -208 -488 -120q-128 72 -112 288q16 248 0 368q0 104 -48 160q-24 40 24 56q72 16 96 8q152 -32 128 -232q-24 -192 -16 -360q0 -128 88 -144q160 -24 320 160q16 264 0 464q-8 120 48 136 q160 -8 160 -168q-48 -248 -40 -560q0 -112 144 -88z" />
<glyph unicode="v" horiz-adv-x="936" d="M712 192q-120 -208 -272 -200t-256 192q-128 264 -176 480q40 256 184 240l8 -8q40 -32 32 -80q-56 -248 144 -600q48 -80 80 -80t72 72q112 200 160 544q-24 56 72 104q144 80 168 0q-64 -352 -216 -664z" />
<glyph unicode="w" horiz-adv-x="1472" d="M1384 832q40 -24 24 -80q-72 -672 -336 -752q-256 0 -336 392q-88 -384 -336 -392q-136 16 -216 216q-72 192 -112 456q-8 128 96 208q56 32 88 8q32 -32 16 -96q-32 -288 88 -576q64 -112 144 0q104 192 120 480v8q16 48 64 104q152 136 184 16q-16 -288 56 -536 q48 -136 112 -136q136 112 168 512q16 280 176 168z" />
<glyph unicode="x" horiz-adv-x="1024" d="M1000 64q0 -32 -24 -56q-48 -24 -72 -8q-112 144 -288 312q-432 -408 -592 -264q0 8 -8 32q-16 40 -8 48q8 -8 40 0h16q232 56 424 304q-208 216 -424 304q-24 88 152 64q200 -64 368 -232q56 56 120 184q88 152 160 168q64 8 64 -128q8 -56 -32 -128q0 8 -8 -8 q-16 -16 -40 -48q-80 -104 -128 -152q296 -272 280 -392z" />
<glyph unicode="y" horiz-adv-x="976" d="M720 832q152 144 200 -8q-40 -96 -40 -248q-8 -832 -176 -912q-80 -40 -168 -48q-344 32 -456 272q-8 24 0 48q16 16 32 0q176 -168 416 -128q136 24 144 272q-72 -72 -224 -80q-384 16 -344 656q0 56 32 128q24 64 88 104q120 8 104 -72q-104 -328 16 -584 q136 -168 312 0q104 208 48 488q-24 56 16 112z" />
<glyph unicode="z" horiz-adv-x="856" d="M776 128q48 -56 8 -120q-136 -8 -456 0h-184q-144 24 -32 192q264 296 416 496q16 16 8 16q-8 8 -32 0q-200 -8 -360 0q-112 104 -16 144q272 -16 496 40q160 0 152 -168q-232 -240 -504 -592q456 24 504 -8z" />
<glyph unicode="{" horiz-adv-x="608" d="M416 352v-368q-24 -200 128 -232q-152 -8 -224 56q-80 56 -80 200v384q8 96 -40 152q-48 48 -128 72q64 0 112 40q64 48 56 176v344q-24 336 304 296q-144 -24 -128 -232v-352q16 -256 -176 -272q192 -40 176 -264z" />
<glyph unicode="|" horiz-adv-x="1344" d="M616 -96v1472h128v-1472h-128z" />
<glyph unicode="}" horiz-adv-x="608" d="M208 888v352q16 208 -128 232q328 40 304 -296v-344v-16q-8 -120 56 -160q48 -40 104 -40q-72 -24 -120 -72q-40 -48 -40 -128v-24v-384q0 -144 -80 -200q-72 -64 -224 -56q152 32 128 232v368q-8 224 176 264q-192 16 -176 272z" />
<glyph unicode="~" horiz-adv-x="1344" d="M1152 816l96 -80q-120 -216 -304 -208q-88 0 -288 72q-24 8 -32 16q-96 56 -192 56q-128 -8 -224 -160l-96 80q128 216 320 216q112 8 280 -72q136 -64 232 -64q128 16 208 144z" />
<glyph unicode="&#xa4;" d="M1352 1176l96 104q32 40 64 40q56 -8 64 -64q0 -16 -24 -40l-120 -120q136 -168 128 -360q0 -168 -104 -312l96 -104l8 -8q32 -24 32 -48q-8 -56 -64 -72q-24 0 -56 32l-8 8l-104 104q-152 -112 -336 -120q-184 0 -328 112l-112 -104l-8 -8q-24 -32 -56 -32q-48 8 -56 56 q0 48 40 64l104 112q-120 144 -120 360q0 184 104 304l-96 104l-8 8q-32 24 -32 56q8 48 64 56q24 0 96 -80q40 -48 56 -56q152 128 344 128q176 -8 336 -120zM1408 752q-32 352 -392 384q-352 -32 -384 -384q32 -344 392 -384q352 32 384 384z" />
<glyph unicode="&#xa7;" d="M1032 224l-168 56q-144 32 -232 104q-96 112 -96 232q0 152 176 296q-112 128 -104 240q24 344 440 376q136 0 312 -80q64 -32 72 -112v-24l24 -96v-16q8 -72 -40 -72q-24 0 -40 32v8q-120 264 -328 264q-280 -24 -296 -232q-8 -152 272 -240l136 -40q360 -88 352 -328 q8 -136 -152 -328q112 -128 104 -240q0 -168 -152 -296q-136 -120 -328 -120q-144 0 -272 72q-64 16 -80 72q-56 200 -56 248q0 40 40 40q24 0 64 -80q112 -248 304 -248q296 24 320 272q0 168 -272 240zM944 432l144 -40q104 -24 200 -72l16 32q56 96 56 168q-8 88 -56 144 t-160 80l-216 56q-72 24 -144 64q-96 -96 -88 -200q0 -168 248 -232z" />
<glyph unicode="&#xa8;" d="M816 1088q-104 8 -112 112q8 112 112 120q96 -8 112 -112q-8 -104 -112 -120zM1232 1088q-104 16 -112 112q8 112 112 120q104 -8 112 -112q-8 -112 -112 -120z" />
<glyph unicode="&#xad;" horiz-adv-x="1344" d="M144 624v144h1072v-144h-1072z" />
<glyph unicode="&#xb0;" d="M720 1232q-24 -288 -312 -312q-280 24 -304 312q24 280 304 304q288 -32 312 -304zM200 1232q16 -200 208 -216q200 16 216 216q-16 192 -216 208q-184 -16 -208 -208z" />
<glyph unicode="&#xb1;" d="M488 912h472v344h128v-344h472v-128h-472v-336h-128v336h-472v128zM488 320h1072v-128h-1072v128z" />
<glyph unicode="&#xb7;" d="M1024 552q-168 8 -168 176q16 152 168 160q152 0 168 -168q-16 -160 -168 -168z" />
<glyph unicode="&#xd7;" d="M488 224l440 440l-440 440l88 96l448 -448l440 448l96 -96l-448 -440l448 -440l-96 -96l-440 440l-440 -440z" />
<glyph unicode="&#xe0;" d="M1224 240q32 320 0 424q-160 152 -352 32q-184 -168 -104 -416q56 -152 224 -152q152 -16 232 112zM1464 64q-56 -64 -136 -64t-96 80q-88 -88 -256 -80q-304 -8 -384 208q-80 344 120 576q232 232 512 40v64q-8 24 0 32q16 16 40 8q80 -8 144 -64q32 -24 16 -48 q-40 -192 -40 -528q-8 -184 72 -160q24 16 32 -8q0 -16 -24 -56zM1096 1288l104 -176l8 -16q16 -24 16 -40q-56 -64 -160 0l-200 208q-32 32 -32 56q0 32 32 24q136 0 176 -8q32 0 56 -48z" />
<glyph unicode="&#xe1;" d="M1224 240q32 320 0 424q-160 152 -352 32q-184 -168 -104 -416q56 -152 224 -152q152 -16 232 112zM1464 64q-56 -64 -136 -64t-96 80q-88 -88 -256 -80q-304 -8 -384 208q-80 344 120 576q232 232 512 40v64q-8 24 0 32q16 16 40 8q80 -8 144 -64q32 -24 16 -48 q-40 -192 -40 -528q-8 -184 72 -160q24 16 32 -8q0 -16 -24 -56zM896 1136l200 200q120 80 160 8q0 -8 -16 -32q-8 -8 -8 -16l-96 -176q-32 -48 -64 -56t-152 -8q-40 0 -48 24t24 56z" />
<glyph unicode="&#xe8;" d="M1384 448q-224 -112 -624 -80q56 -216 280 -224q216 8 320 128q32 32 48 16t0 -64q-72 -240 -408 -224q-464 56 -400 544q72 344 392 392q288 16 424 -224q104 -184 -32 -264zM904 720q-120 -80 -152 -232q256 0 456 80q112 56 0 152q-144 96 -304 0zM1096 1288l104 -176 l8 -16q16 -24 16 -40q-56 -64 -160 0l-200 208q-32 32 -32 56q0 32 32 24q136 0 176 -8q32 0 56 -48z" />
<glyph unicode="&#xe9;" d="M1384 448q-224 -112 -624 -80q56 -216 280 -224q216 8 320 128q32 32 48 16t0 -64q-72 -240 -408 -224q-464 56 -400 544q72 344 392 392q288 16 424 -224q104 -184 -32 -264zM904 720q-120 -80 -152 -232q256 0 456 80q112 56 0 152q-144 96 -304 0zM896 1136l200 200 q120 80 160 8q0 -8 -16 -32q-8 -8 -8 -16l-96 -176q-32 -48 -64 -56t-152 -8q-40 0 -48 24t24 56z" />
<glyph unicode="&#xea;" d="M1384 448q-224 -112 -624 -80q56 -216 280 -224q216 8 320 128q32 32 48 16t0 -64q-72 -240 -408 -224q-464 56 -400 544q72 344 392 392q288 16 424 -224q104 -184 -32 -264zM904 720q-120 -80 -152 -232q256 0 456 80q112 56 0 152q-144 96 -304 0zM1032 1240 l-184 -120q-48 -40 -88 16q-8 24 24 64l176 168q64 72 144 0l184 -160q48 -48 24 -72q-40 -56 -88 -24z" />
<glyph unicode="&#xec;" d="M1168 320l8 -8q24 -32 24 -96q-16 -240 -192 -216q-128 32 -128 192q-8 184 32 512q8 40 -40 64q-24 8 -24 24q0 8 16 24q56 40 80 72q24 48 72 16q64 -24 112 -72q24 -24 0 -56q-56 -72 -80 -256q-16 -216 16 -344q56 32 80 136q8 16 24 8zM1096 1288l104 -176l8 -16 q16 -24 16 -40q-56 -64 -160 0l-200 208q-32 32 -32 56q0 32 32 24q136 0 176 -8q32 0 56 -48z" />
<glyph unicode="&#xed;" d="M1168 320l8 -8q24 -32 24 -96q-16 -240 -192 -216q-128 32 -128 192q-8 184 32 512q8 40 -40 64q-24 8 -24 24q0 8 16 24q56 40 80 72q24 48 72 16q64 -24 112 -72q24 -24 0 -56q-56 -72 -80 -256q-16 -216 16 -344q56 32 80 136q8 16 24 8zM896 1136l200 200 q120 80 160 8q0 -8 -16 -32q-8 -8 -8 -16l-96 -176q-32 -48 -64 -56t-152 -8q-40 0 -48 24t24 56z" />
<glyph unicode="&#xf2;" d="M1032 808q-264 -32 -296 -352q-8 -344 288 -352q280 8 296 352q-32 328 -288 352zM1504 432q-8 -440 -480 -448q-472 8 -480 464q40 456 480 496q456 -24 480 -512zM1096 1288l104 -176l8 -16q16 -24 16 -40q-56 -64 -160 0l-200 208q-32 32 -32 56q0 32 32 24 q136 0 176 -8q32 0 56 -48z" />
<glyph unicode="&#xf3;" d="M1032 808q-264 -32 -296 -352q-8 -344 288 -352q280 8 296 352q-32 328 -288 352zM1504 432q-8 -440 -480 -448q-472 8 -480 464q40 456 480 496q456 -24 480 -512zM896 1136l200 200q120 80 160 8q0 -8 -16 -32q-8 -8 -8 -16l-96 -176q-32 -48 -64 -56t-152 -8 q-40 0 -48 24t24 56z" />
<glyph unicode="&#xf7;" d="M488 640v128h1072v-128h-1072zM1024 928q-96 8 -104 112q8 104 104 112q96 -8 112 -112q-8 -96 -112 -112zM1024 264q-96 8 -104 112q8 96 104 104q104 -8 112 -112q-8 -88 -112 -104z" />
<glyph unicode="&#xf9;" d="M1496 112q56 0 -8 -80q-48 -32 -128 -40q-168 0 -168 152q-240 -208 -488 -128q-128 88 -112 296q16 240 0 360q0 104 -48 160q-24 48 24 56q32 16 96 16q152 -40 136 -240q-24 -120 -24 -352q0 -136 88 -152q168 -24 320 160q16 344 0 464q-8 120 48 144 q152 -8 160 -168q-48 -248 -40 -568q0 -112 144 -80zM1096 1288l104 -176l8 -16q16 -24 16 -40q-56 -64 -160 0l-200 208q-32 32 -32 56q0 32 32 24q136 0 176 -8q32 0 56 -48z" />
<glyph unicode="&#xfa;" d="M1496 112q48 0 -8 -72q-48 -40 -136 -48q-160 8 -160 152q-248 -208 -488 -120q-128 72 -112 288q16 248 0 368q-8 104 -48 160q-32 40 16 56h16q48 16 80 8q160 -32 136 -232q-24 -168 -24 -360q8 -128 96 -144q152 -24 320 160q16 264 0 464q-8 128 40 136 q168 0 168 -168q-48 -184 -48 -560q8 -112 152 -88zM896 1136l200 200q120 80 160 8q0 -8 -16 -32q-8 -8 -8 -16l-96 -176q-32 -48 -64 -56t-152 -8q-40 0 -48 24t24 56z" />
<glyph unicode="&#xfc;" d="M1496 112q48 0 -8 -72q-48 -40 -136 -48q-160 8 -160 152q-248 -208 -488 -120q-128 72 -112 288q16 248 0 368q-8 104 -48 160q-32 40 16 56h16q48 16 80 8q160 -32 136 -232q-24 -168 -24 -360q8 -128 96 -144q152 -24 320 160q16 264 0 464q-8 128 40 136 q168 0 168 -168q-48 -184 -48 -560q8 -112 152 -88zM792 1096q-104 8 -112 112q8 112 112 120q96 -8 112 -112q-8 -104 -112 -120zM1208 1096q-104 16 -112 112q8 112 112 120q96 -8 112 -112q-8 -112 -112 -120z" />
<glyph unicode="&#x2000;" horiz-adv-x="844" vert-adv-y="0" />
<glyph unicode="&#x2001;" horiz-adv-x="1688" vert-adv-y="0" />
<glyph unicode="&#x2002;" horiz-adv-x="844" vert-adv-y="0" />
<glyph unicode="&#x2003;" horiz-adv-x="1688" vert-adv-y="0" />
<glyph unicode="&#x2004;" horiz-adv-x="562" vert-adv-y="0" />
<glyph unicode="&#x2005;" horiz-adv-x="422" vert-adv-y="0" />
<glyph unicode="&#x2006;" horiz-adv-x="281" vert-adv-y="0" />
<glyph unicode="&#x2007;" horiz-adv-x="281" vert-adv-y="0" />
<glyph unicode="&#x2008;" horiz-adv-x="211" vert-adv-y="0" />
<glyph unicode="&#x2009;" horiz-adv-x="337" vert-adv-y="0" />
<glyph unicode="&#x200a;" horiz-adv-x="93" vert-adv-y="0" />
<glyph unicode="&#x2010;" horiz-adv-x="1344" d="M144 624v144h1072v-144h-1072z" />
<glyph unicode="&#x2011;" horiz-adv-x="1344" d="M144 624v144h1072v-144h-1072z" />
<glyph unicode="&#x2012;" horiz-adv-x="1344" d="M144 624v144h1072v-144h-1072z" />
<glyph unicode="&#x2013;" horiz-adv-x="1296" d="M144 624v144h1024v-144h-1024z" />
<glyph unicode="&#x2014;" d="M0 784h2048v-136h-2048v136z" />
<glyph unicode="&#x2018;" d="M1592 1312q96 -8 72 -152q-24 -96 -112 -112q-136 8 -144 176q8 200 160 320q48 32 88 8q24 -24 -8 -64q-64 -56 -88 -144q0 -32 32 -32z" />
<glyph unicode="&#x2019;" d="M464 1328q-96 8 -72 152q24 96 112 112q136 -8 144 -176q-8 -192 -160 -320q-48 -32 -88 -8q-16 24 8 64q72 64 88 144q0 32 -32 32z" />
<glyph unicode="&#x201c;" d="M1776 1336q88 -8 72 -152q-40 -104 -112 -112q-136 8 -144 176q8 200 160 320q48 32 88 8q24 -24 -16 -64q-56 -56 -80 -144q-8 -40 32 -32zM1416 1336q88 -8 72 -152q-40 -104 -112 -112q-136 8 -144 176q8 192 152 320q48 32 96 8q16 -24 -16 -64q-56 -64 -80 -136 q-16 -40 32 -40z" />
<glyph unicode="&#x201d;" d="M264 1328q-96 24 -72 160q24 104 112 112q128 -8 136 -184q-8 -176 -152 -320q-56 -24 -96 0q-8 24 16 64q64 64 80 136q8 24 0 32t-24 0zM664 1336q-88 8 -72 152q40 104 112 112q136 -8 144 -176q-8 -192 -152 -320q-56 -32 -96 -8q-24 24 16 64q56 64 80 144 q8 24 0 24q0 8 -32 8z" />
<glyph unicode="&#x2026;" d="M1696 816q128 -8 136 -120q0 -120 -120 -128q-128 8 -136 128q8 112 120 120zM1008 816q128 -8 136 -120q0 -120 -128 -128q-120 8 -128 128q8 112 120 120zM336 824q112 0 136 -128q-8 -112 -128 -120q-128 8 -136 128q16 112 128 120z" />
<glyph unicode="&#x202f;" horiz-adv-x="337" vert-adv-y="0" />
<glyph unicode="&#x205f;" horiz-adv-x="422" vert-adv-y="0" />
<glyph unicode="&#x20ac;" horiz-adv-x="1688" d="M576 880h720l-48 -72h-696q-24 -80 -32 -240h704l-24 -72h-672q16 -88 40 -160q104 -200 408 -184q304 24 616 248q16 8 24 0t0 -32q-184 -360 -688 -368q-480 -16 -592 336q-16 40 -24 128q-8 24 -8 32h-224l40 72h184v16q16 152 32 224h-224l40 72h208q8 0 32 72 q8 32 16 48q216 408 584 464q224 -16 352 -200q40 -104 -16 -136l-8 -8q-48 -40 -96 24q-120 144 -320 72q-216 -80 -320 -304q0 -8 -8 -32z" />
<glyph unicode="&#x25fc;" horiz-adv-x="920" vert-adv-y="1840" d="M0 920h920v-920h-920v920z" />
</font>
</defs>
</svg>
